<svg width="701" height="253" viewBox="0 0 701 253" fill="none" xmlns="http://www.w3.org/2000/svg">
<path d="M700.123 0.690918C700.123 13.5029 694.978 25.0799 686.54 33.5179C678.153 41.9559 666.576 47.1009 653.765 47.1009H505.121L549.421 0.690918H700.123Z" fill="black"/>
<path d="M172.434 0.802979L216.734 47.212H46.481C33.669 47.212 22.093 41.964 13.706 33.629C5.26804 25.191 0.123047 13.614 0.123047 0.802979H172.434Z" fill="black"/>
<path d="M345.464 81.6519L313.409 115.249L203.612 0.769897H310.271L294.269 27.9879L345.464 81.6519Z" fill="black"/>
<path d="M615.155 84.402C615.155 97.213 610.01 108.79 601.572 117.228C593.134 125.666 581.557 130.811 568.746 130.811H425.402L468.312 84.402H615.155Z" fill="black"/>
<path d="M296.751 130.863H155.62C129.997 130.863 109.211 110.076 109.211 84.454H252.452L296.751 130.863Z" fill="black"/>
<path d="M408.895 148.065L376.863 181.641L417.572 227.288L404.334 252.805H440.344H441.133H505.027L408.895 148.065Z" fill="black"/>
<path d="M403.854 0.626953L425.357 30.7729L211.351 252.805H275.553H275.724H312.558L299.697 228.18L374.736 151.083L473.989 47.0289L518.265 0.626953H403.854Z" fill="black"/>
</svg>
