<svg width="768" height="226" viewBox="0 0 768 226" fill="none" xmlns="http://www.w3.org/2000/svg">
<path d="M168.446 212.406C91.9316 235.122 24.2677 215.103 0 202.254V0.317413H768V212.406C714.04 231.315 659.152 220.285 638.454 212.406C621.918 202.148 570.718 187.787 498.201 212.406C425.683 237.026 355.688 222.664 329.755 212.406C307.866 202.941 244.961 189.69 168.446 212.406Z" fill="#1A1A1A"/>
<path d="M168.446 178.083C91.9316 197.157 24.2677 180.347 0 169.558V-0.00012207H768V178.083C714.04 193.96 659.152 184.698 638.454 178.083C621.918 169.47 570.718 157.411 498.201 178.083C425.683 198.755 355.688 186.696 329.755 178.083C307.866 170.136 244.961 159.009 168.446 178.083Z" fill="#232323"/>
<path d="M168.446 143.202C91.9316 158.505 24.2677 145.018 0 136.362V0.31749H768V143.202C714.04 155.94 659.152 148.509 638.454 143.202C621.918 136.291 570.718 126.615 498.201 143.202C425.683 159.788 355.688 150.112 329.755 143.202C307.866 136.825 244.961 127.898 168.446 143.202Z" fill="url(#paint0_linear_518_462)"/>
<defs>
<linearGradient id="paint0_linear_518_462" x1="384" y1="162" x2="384" y2="-4.63952e-06" gradientUnits="userSpaceOnUse">
<stop/>
<stop offset="0.65" stop-color="#1F1F1F"/>
<stop offset="1" stop-color="#3A3A3A"/>
</linearGradient>
</defs>
</svg>
