<svg width="608" height="150" viewBox="0 0 608 150" fill="none" xmlns="http://www.w3.org/2000/svg">
<rect width="608" height="150" rx="24" fill="#14233B"/>
<mask id="mask0_523_471" style="mask-type:alpha" maskUnits="userSpaceOnUse" x="0" y="0" width="608" height="150">
<rect width="608" height="150" rx="24" fill="black"/>
</mask>
<g mask="url(#mask0_523_471)">
<path d="M64 117.5C27.2 127.1 6.66667 75.8333 1 49L0 44.5V47V150.5H154.5C139.667 135.5 100.8 107.9 64 117.5Z" fill="#208EB1"/>
<path d="M55.5081 125.67C23.5909 133.911 5.78209 89.8994 0.867314 66.8632L0 63V65.1462V154H134C121.135 141.123 87.4252 117.428 55.5081 125.67Z" fill="#38F9F9"/>
<path d="M567.819 14.8585C590.923 8.79057 603.814 41.195 607.372 58.1557L608 61V59.4198V-6H511C520.313 3.48113 544.715 20.9264 567.819 14.8585Z" fill="#208EB1"/>
<path d="M573.204 9.74529C593.212 4.58302 604.375 32.1509 607.456 46.5802L608 49V47.6557V-8H524C532.065 0.06604 553.196 14.9076 573.204 9.74529Z" fill="#38F9F9"/>
</g>
</svg>
